<svg xmlns="http://www.w3.org/2000/svg" width="59.174" height="99.77" viewBox="0 0 59.174 99.77">
  <g id="Group_138" data-name="Group 138" transform="translate(-295.826 -531)">
    <path id="Path_30" data-name="Path 30" d="M28.227,47.006H40.456c2.976,0,6.895,0,8.925,1.228a8,8,0,0,1,3.964,7.037,7.782,7.782,0,0,1-5,7.552v.1c4.157.849,6.421,3.966,6.421,8.122,0,4.956-3.542,9.678-10.246,9.678H28.227ZM32.71,61.5h8.976c5.1,0,7.177-1.841,7.177-5.383,0-4.675-3.3-5.335-7.177-5.335H32.71Zm0,15.439H43.951c3.871,0,6.327-2.36,6.327-6.043,0-4.392-3.542-5.619-7.32-5.619H32.71Z" transform="translate(284.873 512.761)" fill="#fff"/>
    <path id="Path_31" data-name="Path 31" d="M55.341,55.836A25.643,25.643,0,1,1,29.7,30.2a25.643,25.643,0,0,1,25.646,25.64M29.7,26.285A29.537,29.537,0,1,0,59.237,55.822,29.537,29.537,0,0,0,29.7,26.285" transform="translate(295.764 520.801)" fill="#fff"/>
    <rect id="Rectangle_79" data-name="Rectangle 79" width="58.954" height="3.875" transform="translate(295.985 612.39)" fill="#fff"/>
    <path id="Path_32" data-name="Path 32" d="M92.478,124.983c.073,0,.141,0,.206-.007a.5.5,0,0,0,.17-.039.29.29,0,0,0,.121-.1.343.343,0,0,0,.043-.192.276.276,0,0,0-.04-.163.236.236,0,0,0-.1-.094.424.424,0,0,0-.144-.05c-.055,0-.107-.009-.163-.009h-.423v.655Zm.141-.914a.855.855,0,0,1,.543.144.545.545,0,0,1,.179.444.518.518,0,0,1-.155.409.746.746,0,0,1-.39.154l.589.9h-.341l-.563-.886h-.337v.886h-.324v-2.055Zm-1.449,1.618a1.34,1.34,0,0,0,.3.482,1.385,1.385,0,0,0,.461.318,1.42,1.42,0,0,0,.572.111,1.4,1.4,0,0,0,.572-.111,1.5,1.5,0,0,0,.462-.318,1.473,1.473,0,0,0,.3-.482,1.517,1.517,0,0,0,.114-.593,1.5,1.5,0,0,0-.114-.591,1.477,1.477,0,0,0-.3-.476,1.537,1.537,0,0,0-.462-.314,1.44,1.44,0,0,0-.572-.116,1.466,1.466,0,0,0-.572.116,1.421,1.421,0,0,0-.461.314,1.341,1.341,0,0,0-.3.476,1.512,1.512,0,0,0-.112.591,1.528,1.528,0,0,0,.112.593m-.292-1.291a1.866,1.866,0,0,1,.382-.553,1.806,1.806,0,0,1,.566-.368,1.738,1.738,0,0,1,.681-.132,1.758,1.758,0,0,1,1.626,1.053,1.671,1.671,0,0,1,.141.7,1.65,1.65,0,0,1-.141.7,1.718,1.718,0,0,1-.382.561,1.692,1.692,0,0,1-.553.372,1.835,1.835,0,0,1-.69.13,1.806,1.806,0,0,1-.681-.13,1.734,1.734,0,0,1-.566-.372,1.8,1.8,0,0,1-.382-.561,1.63,1.63,0,0,1-.138-.7,1.65,1.65,0,0,1,.138-.7" transform="translate(260.617 483.141)" fill="#fff"/>
    <path id="Path_33" data-name="Path 33" d="M7.305,3.1a2.362,2.362,0,0,0-.523-.589,2.434,2.434,0,0,0-1.538-.538A2.74,2.74,0,0,0,3.9,2.277,2.538,2.538,0,0,0,3,3.1,3.592,3.592,0,0,0,2.5,4.27a5.834,5.834,0,0,0-.157,1.359A5.419,5.419,0,0,0,2.5,6.935,3.52,3.52,0,0,0,3,8.078a2.564,2.564,0,0,0,.9.814A2.74,2.74,0,0,0,5.244,9.2a2.169,2.169,0,0,0,1.68-.656,3.046,3.046,0,0,0,.739-1.732H9.932A5.417,5.417,0,0,1,9.47,8.615a4.336,4.336,0,0,1-.986,1.373,4.179,4.179,0,0,1-1.434.867,5.253,5.253,0,0,1-1.807.3,5.457,5.457,0,0,1-2.2-.426,4.708,4.708,0,0,1-1.65-1.172A5.181,5.181,0,0,1,.362,7.8,6.432,6.432,0,0,1,0,5.629,6.655,6.655,0,0,1,.362,3.411,5.319,5.319,0,0,1,1.392,1.627,4.7,4.7,0,0,1,3.042.433,5.386,5.386,0,0,1,5.244,0,5.376,5.376,0,0,1,6.909.253a4.492,4.492,0,0,1,1.4.74,3.991,3.991,0,0,1,1.023,1.2,4.293,4.293,0,0,1,.508,1.642H7.573A1.922,1.922,0,0,0,7.305,3.1" transform="translate(295.825 531)" fill="#fff"/>
    <path id="Path_34" data-name="Path 34" d="M19.547,10.956a2.173,2.173,0,0,0,2.479.141,1.329,1.329,0,0,0,.567-.679h1.867A3.539,3.539,0,0,1,23.086,12.4a4.047,4.047,0,0,1-2.24.6,4.407,4.407,0,0,1-1.642-.291,3.411,3.411,0,0,1-1.24-.829A3.735,3.735,0,0,1,17.18,10.6,4.7,4.7,0,0,1,16.9,8.956a4.5,4.5,0,0,1,.284-1.613,3.725,3.725,0,0,1,2.053-2.15,3.991,3.991,0,0,1,1.6-.313,3.676,3.676,0,0,1,1.717.38,3.43,3.43,0,0,1,1.2,1.023,4.184,4.184,0,0,1,.679,1.463,5.461,5.461,0,0,1,.149,1.717H19.025a2.142,2.142,0,0,0,.523,1.493m2.4-4.061a1.492,1.492,0,0,0-1.158-.418,1.854,1.854,0,0,0-.843.171,1.618,1.618,0,0,0-.537.425,1.568,1.568,0,0,0-.284.539,2.428,2.428,0,0,0-.1.507h3.449a2.449,2.449,0,0,0-.53-1.225" transform="translate(289.267 529.106)" fill="#fff"/>
    <path id="Path_35" data-name="Path 35" d="M33.046,5.089V6.523h.03a2.607,2.607,0,0,1,.4-.665,2.657,2.657,0,0,1,.583-.523,2.854,2.854,0,0,1,.7-.336,2.53,2.53,0,0,1,.776-.119A1.665,1.665,0,0,1,36,4.954V6.925c-.1-.02-.22-.037-.359-.052a3.847,3.847,0,0,0-.4-.022,2.261,2.261,0,0,0-.985.194,1.7,1.7,0,0,0-.65.53,2.121,2.121,0,0,0-.351.784,4.258,4.258,0,0,0-.1.97v3.48H31.03V5.089Z" transform="translate(283.786 529.106)" fill="#fff"/>
    <path id="Path_36" data-name="Path 36" d="M45.284,3.754V5.171H43.73V8.994a1.039,1.039,0,0,0,.18.717,1.037,1.037,0,0,0,.716.179c.119,0,.234-.006.343-.015a2.9,2.9,0,0,0,.315-.045v1.643a5.152,5.152,0,0,1-.6.059q-.328.016-.642.016a6.124,6.124,0,0,1-.933-.068,2.176,2.176,0,0,1-.776-.261,1.387,1.387,0,0,1-.531-.553,1.969,1.969,0,0,1-.193-.94V5.171H40.326V3.754h1.285V1.439H43.73V3.754Z" transform="translate(280.179 530.441)" fill="#fff"/>
    <path id="Path_37" data-name="Path 37" d="M50.444.414h2.121V2.161H50.444Zm2.121,10.661H50.444V3.356h2.121Z" transform="translate(276.253 530.84)" fill="#fff"/>
    <path id="Path_38" data-name="Path 38" d="M55.282,4.775V3.357h1.269v-.6a2.313,2.313,0,0,1,.642-1.687A2.6,2.6,0,0,1,59.134.415c.188,0,.378.007.568.023s.373.028.551.037V2.058a6.487,6.487,0,0,0-.776-.045.81.81,0,0,0-.619.2.992.992,0,0,0-.187.679v.463h1.463V4.775H58.672v6.3h-2.12v-6.3Z" transform="translate(274.376 530.839)" fill="#fff"/>
    <path id="Path_39" data-name="Path 39" d="M65.56.414h2.121V2.161H65.56Zm2.121,10.661H65.56V3.356h2.121Z" transform="translate(270.388 530.84)" fill="#fff"/>
    <path id="Path_40" data-name="Path 40" d="M72.813,10.956a2.173,2.173,0,0,0,2.479.141,1.326,1.326,0,0,0,.567-.679h1.866A3.543,3.543,0,0,1,76.353,12.4a4.055,4.055,0,0,1-2.24.6,4.405,4.405,0,0,1-1.643-.291,3.4,3.4,0,0,1-1.239-.829,3.717,3.717,0,0,1-.784-1.283,4.713,4.713,0,0,1-.277-1.643,4.517,4.517,0,0,1,.284-1.613,3.73,3.73,0,0,1,2.053-2.15,3.992,3.992,0,0,1,1.605-.313,3.678,3.678,0,0,1,1.717.38,3.436,3.436,0,0,1,1.2,1.023,4.192,4.192,0,0,1,.678,1.463,5.461,5.461,0,0,1,.151,1.717h-5.57a2.145,2.145,0,0,0,.523,1.493m2.4-4.061a1.49,1.49,0,0,0-1.157-.418,1.85,1.85,0,0,0-.843.171,1.615,1.615,0,0,0-.538.425,1.578,1.578,0,0,0-.284.539,2.469,2.469,0,0,0-.1.507h3.449a2.428,2.428,0,0,0-.53-1.225" transform="translate(268.599 529.106)" fill="#fff"/>
    <path id="Path_41" data-name="Path 41" d="M89.569,10.089a2.187,2.187,0,0,1-.979.9,3.243,3.243,0,0,1-1.365.276,3.287,3.287,0,0,1-1.523-.336,3.048,3.048,0,0,1-1.083-.91A4.117,4.117,0,0,1,83.977,8.7a5.543,5.543,0,0,1-.216-1.553,5.21,5.21,0,0,1,.216-1.5,3.894,3.894,0,0,1,.642-1.277,3.211,3.211,0,0,1,1.067-.888,3.178,3.178,0,0,1,1.494-.335,3.021,3.021,0,0,1,1.305.291,2.269,2.269,0,0,1,.979.859h.03V.414h2.12V11.075H89.6v-.985Zm-.091-3.815a2.245,2.245,0,0,0-.306-.777,1.72,1.72,0,0,0-.56-.545,1.637,1.637,0,0,0-.865-.209,1.722,1.722,0,0,0-.881.209,1.661,1.661,0,0,0-.576.553,2.474,2.474,0,0,0-.312.784,4.208,4.208,0,0,0-.1.919,3.959,3.959,0,0,0,.1.9,2.47,2.47,0,0,0,.336.8,1.847,1.847,0,0,0,.583.567,1.567,1.567,0,0,0,.843.217,1.679,1.679,0,0,0,.873-.209,1.6,1.6,0,0,0,.561-.56,2.522,2.522,0,0,0,.3-.8,4.69,4.69,0,0,0,.091-.926,4.589,4.589,0,0,0-.091-.919" transform="translate(263.325 530.84)" fill="#fff"/>
    <path id="Path_42" data-name="Path 42" d="M5.331,150.046a1.624,1.624,0,0,0-1.641-1.315c-1.482,0-2.04,1.263-2.04,2.577,0,1.25.559,2.512,2.04,2.512a1.689,1.689,0,0,0,1.7-1.683h1.6a3.172,3.172,0,0,1-3.3,3.07,3.94,3.94,0,0,1,0-7.865,3.048,3.048,0,0,1,3.239,2.7Z" transform="translate(295.826 473.828)" fill="#fff"/>
    <path id="Path_43" data-name="Path 43" d="M15.278,150.781a2.865,2.865,0,0,1,0,5.729,2.865,2.865,0,0,1,0-5.729m0,4.6c1.02,0,1.324-.873,1.324-1.734s-.3-1.745-1.324-1.745-1.316.873-1.316,1.745.307,1.734,1.316,1.734" transform="translate(290.987 472.494)" fill="#fff"/>
    <path id="Path_44" data-name="Path 44" d="M23.168,150.912h1.417v1.009h.022a1.921,1.921,0,0,1,1.736-1.156,1.136,1.136,0,0,1,.326.051V152.2a2.786,2.786,0,0,0-.537-.051c-1.095,0-1.474.788-1.474,1.744v2.45H23.168Z" transform="translate(286.837 472.5)" fill="#fff"/>
    <path id="Path_45" data-name="Path 45" d="M29.842,150.927h1.42v.693h.02a1.807,1.807,0,0,1,1.618-.84c1.7,0,2.471,1.377,2.471,2.922,0,1.452-.8,2.808-2.386,2.808a1.927,1.927,0,0,1-1.628-.821h-.022v2.587H29.842Zm4.037,2.734c0-.864-.347-1.756-1.3-1.756-.977,0-1.292.873-1.292,1.756s.336,1.723,1.3,1.723,1.293-.841,1.293-1.723" transform="translate(284.247 472.494)" fill="#fff"/>
    <path id="Path_46" data-name="Path 46" d="M42.452,150.781a2.865,2.865,0,1,1-2.806,2.87,2.669,2.669,0,0,1,2.806-2.87m0,4.6c1.02,0,1.326-.873,1.326-1.734s-.305-1.745-1.326-1.745-1.314.873-1.314,1.745.306,1.734,1.314,1.734" transform="translate(280.442 472.494)" fill="#fff"/>
    <path id="Path_47" data-name="Path 47" d="M50.345,150.912h1.419v1.009h.023a1.918,1.918,0,0,1,1.733-1.156,1.125,1.125,0,0,1,.326.051V152.2a2.76,2.76,0,0,0-.536-.051c-1.093,0-1.472.788-1.472,1.744v2.45H50.345Z" transform="translate(276.291 472.5)" fill="#fff"/>
    <path id="Path_48" data-name="Path 48" d="M56.675,152.6c.086-1.4,1.336-1.818,2.556-1.818,1.083,0,2.388.241,2.388,1.544v2.829a2.741,2.741,0,0,0,.19,1.209H60.293a2.348,2.348,0,0,1-.106-.526,2.483,2.483,0,0,1-1.828.673c-1.031,0-1.85-.515-1.85-1.63,0-1.229.927-1.523,1.85-1.65s1.767-.105,1.767-.716c0-.64-.444-.735-.968-.735-.568,0-.935.231-.989.82Zm3.451,1.1a2.973,2.973,0,0,1-1.242.316c-.463.093-.884.253-.884.8s.431.693.916.693a1.11,1.11,0,0,0,1.209-1.25Z" transform="translate(273.899 472.494)" fill="#fff"/>
    <path id="Path_49" data-name="Path 49" d="M68.266,149.986H69.36v1H68.266v2.69c0,.507.127.632.63.632a2.42,2.42,0,0,0,.464-.04v1.166a5.737,5.737,0,0,1-.874.053c-.912,0-1.712-.212-1.712-1.294v-3.206h-.906v-1h.906v-1.63h1.491Z" transform="translate(270.268 473.435)" fill="#fff"/>
    <path id="Path_50" data-name="Path 50" d="M74.906,148.865H73.413v-1.231h1.493Zm-1.493.841h1.493v5.436H73.414Z" transform="translate(267.341 473.715)" fill="#fff"/>
    <path id="Path_51" data-name="Path 51" d="M80.3,150.781a2.865,2.865,0,1,1-2.8,2.87,2.67,2.67,0,0,1,2.8-2.87m0,4.6c1.022,0,1.326-.873,1.326-1.734s-.3-1.745-1.326-1.745-1.314.873-1.314,1.745.305,1.734,1.314,1.734" transform="translate(265.757 472.494)" fill="#fff"/>
    <path id="Path_52" data-name="Path 52" d="M88.261,150.927h1.42v.758h.031a1.939,1.939,0,0,1,1.662-.9c1.587,0,1.986.893,1.986,2.239v3.343H91.867v-3.07c0-.893-.264-1.337-.956-1.337-.811,0-1.158.453-1.158,1.558v2.849H88.261Z" transform="translate(261.579 472.494)" fill="#fff"/>
  </g>
</svg>
