<?xml version="1.0" encoding="utf-8"?>
<!-- Generator: Adobe Illustrator 24.0.0, SVG Export Plug-In . SVG Version: 6.00 Build 0)  -->
<svg version="1.1" id="Isolation_Mode" xmlns="http://www.w3.org/2000/svg" xmlns:xlink="http://www.w3.org/1999/xlink" x="0px"
	 y="0px" viewBox="0 0 2000 1800" style="enable-background:new 0 0 2000 1800;" xml:space="preserve">
<style type="text/css">
	.st0{fill-rule:evenodd;clip-rule:evenodd;fill:#FFFFFF;}
</style>
<path class="st0" d="M843.51,578.31c0.37-0.23,0.77-0.43,1.2-0.6c0.4-0.17,0.85-0.32,1.35-0.45l2.75-0.55h1.8l12.7,1h0.05l-1.3,11.8
	h-0.05l-7-0.75h-0.2l-0.7,0.1l-0.25,0.1l-0.8,0.4c-0.17,0.03-0.3,0.12-0.4,0.25l-0.6,0.65c-0.13,0.17-0.25,0.37-0.35,0.6
	c-0.1,0.2-0.18,0.42-0.25,0.65c-0.07,0.23-0.12,0.48-0.15,0.75c-0.03,0.23-0.05,0.48-0.05,0.75l0.1,7.4l10.3,0.1l-1.5,11.7
	l-8.9,0.35v34.05l-0.05,0.05h-13.9v-34.4h-7.5v-11.75h7.2v-0.1l0.05-0.15l0.25-12.55l0.1-0.7v-0.35l0.1-0.35
	c0.03-0.27,0.1-0.52,0.2-0.75c0.07-0.23,0.17-0.45,0.3-0.65c0.13-0.5,0.32-0.95,0.55-1.35c0.2-0.43,0.45-0.85,0.75-1.25
	c0.23-0.37,0.52-0.72,0.85-1.05c0.3-0.37,0.62-0.7,0.95-1v-0.05L843.51,578.31z"/>
</svg>
