<?xml version="1.0" encoding="utf-8"?>
<!-- Generator: Adobe Illustrator 24.0.0, SVG Export Plug-In . SVG Version: 6.00 Build 0)  -->
<svg version="1.1" id="Layer_1" xmlns="http://www.w3.org/2000/svg" xmlns:xlink="http://www.w3.org/1999/xlink" x="0px" y="0px"
	 viewBox="0 0 75 75" style="enable-background:new 0 0 75 75;" xml:space="preserve">
<style type="text/css">
	.st0{fill:#FFFFFF;}
</style>
<path class="st0" d="M61.5,54h-48V23.64l22.12,17.7C36.17,41.78,36.84,42,37.5,42s1.33-0.22,1.88-0.66l22.12-17.7V54z M55.2,21
	L37.5,35.16L19.8,21H55.2z M67.5,18.84l-0.02-0.02C67.26,16.68,65.44,15,63.25,15h-51.5c-2.19,0-4.02,1.68-4.23,3.82L7.5,18.84
	l0.02,0.01c-0.01,0.13-0.02,0.26-0.02,0.39v36.5c0,2.34,1.91,4.25,4.25,4.25h51.5c2.34,0,4.25-1.91,4.25-4.25v-36.5
	c0-0.13-0.01-0.27-0.02-0.4L67.5,18.84z"/>
</svg>
