<?xml version="1.0" encoding="utf-8"?>
<!-- Generator: Adobe Illustrator 24.0.0, SVG Export Plug-In . SVG Version: 6.00 Build 0)  -->
<svg version="1.1" id="Capa_1" xmlns="http://www.w3.org/2000/svg" xmlns:xlink="http://www.w3.org/1999/xlink" x="0px" y="0px"
	 viewBox="0 0 841.89 595.28" style="enable-background:new 0 0 841.89 595.28;" xml:space="preserve">
<style type="text/css">
	.st0{fill:#FFFFFF;}
</style>
<path class="st0" d="M146.09,324.65c-0.63,0.28-1.3,0.47-2.01,0.55c0.72-0.43,1.28-1.12,1.54-1.93c-0.68,0.4-1.42,0.69-2.22,0.85
	c-0.64-0.68-1.55-1.1-2.55-1.1c-1.93,0-3.49,1.57-3.49,3.5c0,0.27,0.03,0.54,0.09,0.8c-2.9-0.15-5.48-1.54-7.2-3.65
	c-0.3,0.52-0.47,1.12-0.47,1.76c0,1.21,0.62,2.28,1.56,2.91c-0.57-0.02-1.11-0.18-1.58-0.44v0.04c0,1.69,1.2,3.11,2.8,3.43
	c-0.29,0.08-0.6,0.12-0.92,0.12c-0.23,0-0.44-0.02-0.66-0.06c0.44,1.39,1.73,2.4,3.26,2.43c-1.2,0.94-2.7,1.5-4.34,1.5
	c-0.28,0-0.56-0.02-0.83-0.05c1.55,0.99,3.38,1.57,5.36,1.57c6.43,0,9.94-5.33,9.94-9.95c0-0.15,0-0.3-0.01-0.45
	C145.03,325.97,145.62,325.35,146.09,324.65"/>
</svg>
