<?xml version="1.0" encoding="utf-8"?>
<!-- Generator: Adobe Illustrator 23.0.1, SVG Export Plug-In . SVG Version: 6.00 Build 0)  -->
<svg version="1.1" id="Isolation_Mode" xmlns="http://www.w3.org/2000/svg" xmlns:xlink="http://www.w3.org/1999/xlink" x="0px"
	 y="0px" viewBox="0 0 56.33 53.67" style="enable-background:new 0 0 56.33 53.67;" xml:space="preserve">
<style type="text/css">
	.st0{fill:#FFFFFF;}
</style>
<polygon class="st0" points="1.69,52.48 14.29,52.48 14.34,52.44 14.34,18.94 1.69,18.94 "/>
<path class="st0" d="M14.44,8.03c0-0.33-0.02-0.67-0.05-1c-0.07-0.33-0.13-0.65-0.2-0.95c-0.07-0.3-0.15-0.58-0.25-0.85
	c-0.17-0.37-0.37-0.72-0.6-1.05c-0.27-0.37-0.57-0.72-0.9-1.05c-0.33-0.33-0.68-0.63-1.05-0.9c-0.4-0.23-0.8-0.43-1.2-0.6
	c-0.4-0.2-0.82-0.33-1.25-0.4c-0.43-0.1-0.88-0.13-1.35-0.1c-0.3-0.03-0.6-0.02-0.9,0.05c-0.33,0.03-0.63,0.08-0.9,0.15
	c-0.6,0.17-1.17,0.4-1.7,0.7c-0.5,0.27-0.97,0.63-1.4,1.1c-0.37,0.33-0.67,0.68-0.9,1.05C1.52,4.55,1.31,4.94,1.14,5.33
	c-0.17,0.4-0.28,0.83-0.35,1.3c-0.1,0.43-0.13,0.9-0.1,1.4c-0.03,0.3-0.02,0.6,0.05,0.9c0,0.3,0.05,0.6,0.15,0.9
	c0.07,0.27,0.15,0.53,0.25,0.8c0.1,0.27,0.23,0.53,0.4,0.8c0.27,0.5,0.65,0.98,1.15,1.45c0.6,0.7,1.3,1.2,2.1,1.5
	c0.3,0.13,0.6,0.23,0.9,0.3c0.3,0.07,0.62,0.12,0.95,0.15c0.3,0.03,0.62,0.05,0.95,0.05h0.05c0.57,0,1.15-0.07,1.75-0.2
	c0.27-0.1,0.53-0.2,0.8-0.3c0.27-0.1,0.53-0.22,0.8-0.35c0.27-0.17,0.52-0.35,0.75-0.55c0.23-0.2,0.47-0.4,0.7-0.6
	c0.2-0.23,0.4-0.47,0.6-0.7c0.17-0.23,0.33-0.48,0.5-0.75c0.13-0.27,0.27-0.53,0.4-0.8c0.1-0.27,0.18-0.53,0.25-0.8
	c0.07-0.3,0.13-0.6,0.2-0.9C14.42,8.63,14.44,8.33,14.44,8.03z"/>
<path class="st0" d="M55.49,52.48l0.05-0.05v-17.7c0-0.73-0.02-1.42-0.05-2.05c-0.03-0.67-0.07-1.27-0.1-1.8
	c-0.07-0.57-0.13-1.08-0.2-1.55c-0.07-0.5-0.15-0.93-0.25-1.3v-0.1c-0.07-0.23-0.12-0.47-0.15-0.7c-0.07-0.2-0.13-0.38-0.2-0.55
	c-0.17-0.4-0.33-0.78-0.5-1.15c-0.17-0.4-0.35-0.78-0.55-1.15c-0.23-0.37-0.48-0.72-0.75-1.05h-0.15c-1.03-1.3-2.55-2.4-4.55-3.3
	h-0.1c-0.33-0.17-0.65-0.3-0.95-0.4c-0.33-0.1-0.67-0.2-1-0.3c-0.37-0.1-0.73-0.17-1.1-0.2l-2.2-0.3h-1.15
	c-0.7-0.03-1.38,0-2.05,0.1c-0.67,0.07-1.32,0.18-1.95,0.35c-0.63,0.13-1.25,0.32-1.85,0.55c-0.63,0.23-1.23,0.5-1.8,0.8
	c-0.57,0.27-1.12,0.58-1.65,0.95c-0.53,0.37-1.05,0.77-1.55,1.2v-3.85H18.79v33.55h12.6l0.05-0.05v-15.1l0.5-5.2l0.2-0.85l0.1-0.05
	c0.13-0.43,0.3-0.82,0.5-1.15c0.2-0.33,0.43-0.65,0.7-0.95c0.27-0.3,0.57-0.55,0.9-0.75c0.33-0.27,0.72-0.48,1.15-0.65
	c0.43-0.2,0.88-0.33,1.35-0.4c0.2-0.03,0.4-0.07,0.6-0.1c0.23-0.03,0.5-0.05,0.8-0.05c0.27,0,0.53,0.02,0.8,0.05
	c0.17,0.03,0.35,0.07,0.55,0.1c0.43,0.1,0.83,0.28,1.2,0.55c0.67,0.5,1.17,1.2,1.5,2.1c0.37,1,0.57,3.35,0.6,7.05v15.45H55.49z"/>
</svg>
