<?xml version="1.0" encoding="utf-8"?>
<!-- Generator: Adobe Illustrator 23.0.1, SVG Export Plug-In . SVG Version: 6.00 Build 0)  -->
<svg version="1.1" id="Layer_1" xmlns="http://www.w3.org/2000/svg" xmlns:xlink="http://www.w3.org/1999/xlink" x="0px" y="0px"
	 viewBox="0 0 75 75" style="enable-background:new 0 0 75 75;" xml:space="preserve">
<style type="text/css">
	.st0{fill:#FFFFFF;}
</style>
<path class="st0" d="M37.5,39.21l17.3-13.59l2.91,3.68L38.95,44.04c-0.85,0.67-2.06,0.67-2.91,0L7.03,21.23v-2.48h4.43L37.5,39.21z
	 M70.31,14.06H4.69c-1.29,0-2.34,1.05-2.34,2.34v42.19c0,0.62,0.25,1.22,0.69,1.66c0.44,0.44,1.04,0.69,1.66,0.69h65.62
	c0.62,0,1.22-0.25,1.66-0.69c0.44-0.44,0.69-1.03,0.69-1.66V16.41c0-0.62-0.25-1.22-0.69-1.66C71.53,14.31,70.93,14.06,70.31,14.06z
	"/>
</svg>
