<svg xmlns="http://www.w3.org/2000/svg" width="43" height="43" viewBox="0 0 43 43">
  <g id="Group_21" data-name="Group 21" transform="translate(0.482 -0.082)">
    <g id="Group_20" data-name="Group 20" transform="translate(11.284 10.579)">
      <path id="Path_8" data-name="Path 8" d="M16.36-86.687l3.834,2.127a1.257,1.257,0,0,1,.575,1.541,5.71,5.71,0,0,1-7.349,3.477A21.458,21.458,0,0,1,.353-92.585a5.694,5.694,0,0,1,3.483-7.335,1.261,1.261,0,0,1,1.545.574l2.13,3.827a1.555,1.555,0,0,1-.2,1.819q-.9,1-1.79,2.009a13.121,13.121,0,0,0,7,6.99q1.005-.894,2.013-1.787a1.566,1.566,0,0,1,1.823-.2Z" transform="translate(0 100)" fill="#fff" fill-rule="evenodd"/>
    </g>
    <g id="Rectangle_20" data-name="Rectangle 20" transform="translate(-0.482 0.082)" fill="none" stroke="#fff" stroke-linejoin="round" stroke-width="1">
      <rect width="43" height="43" rx="21.5" stroke="none"/>
      <rect x="0.5" y="0.5" width="42" height="42" rx="21" fill="none"/>
    </g>
  </g>
</svg>
