<svg xmlns="http://www.w3.org/2000/svg" width="43" height="43" viewBox="0 0 43 43"><defs><style>.a{fill:#fff;fill-rule:evenodd;}.b,.d{fill:none;}.b{stroke:#fff;stroke-linejoin:round;}.c{stroke:none;}</style></defs><path class="a" d="M16.36-86.687l3.834,2.127a1.257,1.257,0,0,1,.575,1.541,5.71,5.71,0,0,1-7.349,3.477A21.458,21.458,0,0,1,.353-92.585a5.694,5.694,0,0,1,3.483-7.335,1.261,1.261,0,0,1,1.545.574l2.13,3.827a1.555,1.555,0,0,1-.2,1.819q-.9,1-1.79,2.009a13.121,13.121,0,0,0,7,6.99q1.005-.894,2.013-1.787a1.566,1.566,0,0,1,1.823-.2Z" transform="translate(11.766 110.496)"/><g class="b"><rect class="c" width="43" height="43" rx="21.5"/><rect class="d" x="0.5" y="0.5" width="42" height="42" rx="21"/></g></svg>